<svg width="1006" height="578" fill="none" xmlns="http://www.w3.org/2000/svg"><path d="M239.368-288.444l270.124 865.443M200.03-288.444l270.123 865.443M160.692-288.444l270.123 865.443M121.353-288.444l270.124 865.443M82.015-288.444l270.123 865.443M42.677-288.444L312.8 576.999M3.338-288.444l270.124 865.443M-36-288.444l270.123 865.443m52.451.001l207.182-872m-246.52 872l207.182-872m-246.52 872L415.08-295M168.559 577l207.182-872m-246.52 872l207.182-872M89.883 577l207.182-872M50.544 577l207.182-872m68.187 872l207.182-872M365.251 577l207.182-872M404.589 577l207.182-872M443.928 577L651.11-295M483.266 577l207.182-872M522.604 577l207.182-872M561.943 577l207.182-872M601.281 577l207.182-872M640.62 577l207.182-872M679.958 577L887.14-295M719.296 577l207.182-872M758.635 577l207.181-872M797.973 577l207.177-872m-726.443 6.556L548.83 576.999M318.045-288.444l270.124 865.443M357.383-288.444l270.124 865.443M396.722-288.444l270.123 865.443M436.06-288.444l270.124 865.443M475.398-288.444l270.124 865.443M514.737-288.444L784.86 576.999M554.075-288.444l270.124 865.443" stroke="#fff" stroke-width=".3" stroke-miterlimit="2.561" stroke-dasharray="15 5"/></svg>