<svg width="16" height="164" fill="none" xmlns="http://www.w3.org/2000/svg"><path d="M7.354.646a.5.5 0 00-.708 0L3.464 3.828a.5.5 0 00.708.707L7 1.707l2.828 2.828a.5.5 0 10.708-.707L7.354.646zM7.5 96V1h-1v95h1zm-4.64 12.954c0-.523.15-.934.448-1.232.299-.299.756-.448 1.372-.448h4.34v-.98h.56v.98h1.26l.84.7v.56h-2.1v1.68h-.56v-1.68H4.68c-.84 0-1.26.326-1.26.98 0 .224.023.41.07.56.047.158.117.322.21.49l-.28.14a3.563 3.563 0 01-.406-.714c-.103-.262-.154-.607-.154-1.036zm0 5.486c0-.635.15-1.185.448-1.652a2.947 2.947 0 011.246-1.064 4.067 4.067 0 011.736-.364c.635 0 1.213.121 1.736.364.523.243.933.597 1.232 1.064.308.467.462 1.017.462 1.652s-.154 1.185-.462 1.652a2.86 2.86 0 01-1.232 1.064 4.067 4.067 0 01-1.736.364 4.067 4.067 0 01-1.736-.364 2.947 2.947 0 01-1.246-1.064c-.299-.467-.448-1.017-.448-1.652zm.56 0c0 .345.126.649.378.91.252.271.597.476 1.036.616.439.149.924.224 1.456.224.532 0 1.017-.075 1.456-.224.439-.14.784-.345 1.036-.616.252-.261.378-.565.378-.91a1.32 1.32 0 00-.378-.924c-.252-.261-.597-.467-1.036-.616a4.771 4.771 0 00-1.456-.21c-.532 0-1.017.07-1.456.21-.439.149-.784.355-1.036.616a1.32 1.32 0 00-.378.924zm-.56 10.168c0-.523.15-.934.448-1.232.299-.299.756-.448 1.372-.448h4.34v-.98h.56v.98h1.26l.84.7v.56h-2.1v1.68h-.56v-1.68H4.68c-.84 0-1.26.326-1.26.98 0 .224.023.41.07.56.047.158.117.322.21.49l-.28.14a3.563 3.563 0 01-.406-.714c-.103-.262-.154-.607-.154-1.036zm7.7 2.784c.476 0 .826-.065 1.05-.196.233-.13.35-.392.35-.784v-.28h.28v1.26c0 .346-.047.602-.14.77-.084.178-.243.304-.476.378-.233.075-.588.112-1.064.112H9.02c.196.196.36.448.49.756.14.318.21.672.21 1.064 0 .7-.187 1.27-.56 1.708-.373.448-1.027.672-1.96.672H3v-1.26h4.2c.653 0 1.13-.149 1.428-.448.308-.289.462-.653.462-1.092 0-.494-.247-.961-.742-1.4H3v-1.26h7.56zm-7.7 9.972c0-.634.15-1.171.448-1.61.308-.438.719-.77 1.232-.994a4.4 4.4 0 011.75-.336c.635 0 1.213.112 1.736.336.523.224.933.546 1.232.966.308.43.462.929.462 1.498 0 .943-.266 1.643-.798 2.1-.523.467-1.283.7-2.282.7l-.56-.028v-4.242c-.784 0-1.423.168-1.918.504-.495.336-.742.798-.742 1.386 0 .439.093.808.28 1.106.187.308.467.593.84.854l-.21.28c-.513-.308-.887-.667-1.12-1.078-.233-.41-.35-.891-.35-1.442zm3.78 1.33c.821 0 1.447-.121 1.876-.364.43-.242.644-.611.644-1.106 0-.28-.112-.532-.336-.756-.215-.224-.513-.401-.896-.532a4.262 4.262 0 00-1.288-.182v2.94zm-3.78 8.39c0-.522.15-.933.448-1.232.299-.298.756-.448 1.372-.448h4.34v-.98h.56v.98h1.26l.84.7v.56h-2.1v1.68h-.56v-1.68H4.68c-.84 0-1.26.327-1.26.98 0 .224.023.411.07.56.047.159.117.322.21.49l-.28.14a3.509 3.509 0 01-.406-.714c-.103-.261-.154-.606-.154-1.036zm0 5.487c0-.635.15-1.185.448-1.652a2.947 2.947 0 011.246-1.064 4.067 4.067 0 011.736-.364c.635 0 1.213.121 1.736.364.523.243.933.597 1.232 1.064.308.467.462 1.017.462 1.652s-.154 1.185-.462 1.652a2.86 2.86 0 01-1.232 1.064 4.067 4.067 0 01-1.736.364 4.067 4.067 0 01-1.736-.364 2.947 2.947 0 01-1.246-1.064c-.299-.467-.448-1.017-.448-1.652zm.56 0c0 .345.126.649.378.91.252.271.597.476 1.036.616.439.149.924.224 1.456.224.532 0 1.017-.075 1.456-.224.439-.14.784-.345 1.036-.616.252-.261.378-.565.378-.91a1.32 1.32 0 00-.378-.924c-.252-.261-.597-.467-1.036-.616a4.771 4.771 0 00-1.456-.21c-.532 0-1.017.07-1.456.21-.439.149-.784.355-1.036.616a1.32 1.32 0 00-.378.924zm4.48 4.932c.476 0 .826-.066 1.05-.196.233-.131.35-.392.35-.784v-.28h.28v1.26c0 .354-.051.62-.154.798a.782.782 0 01-.476.392v.07c.215.168.397.406.546.714.15.308.224.7.224 1.176 0 .802-.327 1.423-.98 1.862-.644.438-1.46.658-2.45.658-.999 0-1.82-.229-2.464-.686-.644-.448-.966-1.106-.966-1.974 0-.355.037-.668.112-.938.075-.271.177-.542.308-.812H.34v-1.26H7.9zm-4.48 2.59c0 .597.261 1.036.784 1.316.523.289 1.218.434 2.086.434.859 0 1.55-.136 2.072-.406.532-.271.798-.672.798-1.204 0-.626-.28-1.116-.84-1.47H3.84a9.48 9.48 0 00-.308.728 1.754 1.754 0 00-.112.602z" fill="#B98B4B"/></svg>