<svg width="29" height="21" fill="none" xmlns="http://www.w3.org/2000/svg"><path d="M28.121 10.746h-.029V9.23c0-.64-.38-1.183-.908-1.377v-6.54c0-.257-.19-.464-.425-.464H2.241c-.235 0-.425.207-.425.463v6.541C1.29 8.047.908 8.59.908 9.23v1.516h-.03c-.484 0-.878.43-.878.958v3.958c0 .529.394.958.879.958h.03v3.496c0 .256.19.463.424.463h.908a.434.434 0 00.412-.35l.828-3.609h22.038l.828 3.608a.433.433 0 00.412.351h.908c.235 0 .425-.207.425-.463V16.62h.03c.484 0 .878-.43.878-.958v-3.958c0-.528-.394-.958-.879-.958zM1.91 19.653h-.151V16.62h.847l-.696 3.033zm25.333 0h-.151l-.696-3.033h.847v3.033zm.88-3.959H.878c-.016 0-.03-.014-.03-.032v-3.958c0-.018.014-.032.03-.032h24.064c.234 0 .425-.207.425-.463s-.19-.463-.425-.463H1.758V9.23c0-.29.216-.527.483-.527h.908c.235 0 .425-.207.425-.463s-.19-.463-.425-.463h-.483V1.775h23.668v6.002h-2.328V5.271c0-.801-.598-1.453-1.333-1.453h-6.357c-.735 0-1.333.652-1.333 1.453v2.506h-.966V5.271c0-.801-.598-1.453-1.333-1.453H6.327c-.735 0-1.333.652-1.333 1.453v2.506h-.029c-.234 0-.425.207-.425.463s.19.463.425.463H26.76c.267 0 .483.236.483.527v1.516h-.483c-.235 0-.425.207-.425.463s.19.463.425.463h1.362c.016 0 .03.014.03.032v3.958c0 .018-.014.032-.03.032zM23.155 5.271v2.506h-7.323V5.271c0-.29.217-.527.483-.527h6.357c.266 0 .483.236.483.527zm-9.989 0v2.506H5.844V5.271c0-.29.217-.527.483-.527h6.357c.266 0 .483.236.483.527z" fill="#fff"/></svg>