<svg width="301" height="118" xmlns="http://www.w3.org/2000/svg"><path fill-rule="evenodd" clip-rule="evenodd" d="M123.154 39.726c-3.822-5.036-6.138-15.04-2.09-20.727a9.072 9.072 0 013.455-2.933c1.435-.69 3.005-.982 4.594-.982.963 0 1.875.226 2.746.632.935.441 1.774 1.073 2.52 1.778.89.832 1.681 1.781 2.406 2.753a49.184 49.184 0 012.408 3.594 346.047 346.047 0 014.153 6.925c2.393-1.804 4.556-3.88 6.384-6.249-3.714-5.477-8.119-16.583-3.283-22.304 1.062-1.251 2.542-2.045 4.201-2.038 1.662.006 3.155.816 4.221 2.057 4.903 5.693.784 16.694-2.897 22.257 1.847 2.343 4.01 4.4 6.399 6.191a373.19 373.19 0 014.103-6.842 49.582 49.582 0 012.411-3.597c.731-.969 1.522-1.918 2.409-2.75.743-.708 1.585-1.337 2.517-1.778a6.415 6.415 0 012.746-.632c1.592 0 3.158.292 4.594.981a9.055 9.055 0 013.455 2.934c4.054 5.702 1.748 15.602-2.182 20.612 23.791 6.017 54.491 3.467 78.92 1.626 9.041-.677 18.343-1.505 27.405-1.505 8.703 0 13.019 8.102 14.773 15.526.852 3.58 1.213 7.33 1.203 11-.01 3.693-.392 7.437-1.206 11.04-1.435 6.37-5.279 16.025-13.149 16.174h-.195c-5.624 0-11.238-.09-16.862-.184-3.075-.051-6.15-.105-9.229-.108-7.729-.013-18.326-.064-25.867 1.768-2.329.569-5.586 1.543-6.151 4.245-.159.775-.114 1.594-.086 2.378.083 2.067.109 3.921-1.017 5.76-1.694 2.762-5.427 4.314-8.374 5.261-6.958 2.254-15.494 3.152-22.761 3.772-14.696 1.254-29.721 1.457-44.465 1.457-14.725 0-29.731-.203-44.405-1.454-7.245-.616-15.771-1.521-22.716-3.769-2.932-.949-6.657-2.505-8.33-5.261-1.119-1.841-1.08-3.699-.985-5.763.038-.787.08-1.61-.076-2.384-.549-2.705-3.85-3.68-6.176-4.245-7.599-1.829-18.25-1.781-26.037-1.768-3.075.003-6.15.06-9.222.107-5.969.102-11.934.188-17.902.188h-.039c-7.978 0-11.876-9.757-13.324-16.177C1.34 73.69.954 69.948.945 66.252c-.01-3.67.354-7.42 1.202-11 1.755-7.42 6.074-15.53 14.773-15.526 8.939.003 18.123.835 27.039 1.514 24.492 1.873 55.317 4.455 79.195-1.514zM20.528 69.758c0 3.27-.041 5.032-.086 6.5-.086 2.663-.606 3.228-1.384 3.393-.3.086-.603.134-.865.134-.217 0-.39.127-.39.301 0 .213.215.299.604.299 1.037 0 1.86-.13 2.855-.13 1.601 0 3.589.088 5.104.13 1.512 0 2.72.088 5.576.088 1.43 0 1.732-.088 1.901-.952.131-.727.475-3.439.475-3.743 0-.258 0-.645-.258-.645-.172 0-.303.172-.389.6-.345 1.594-.65 2.454-1.95 2.845-1.08.298-2.462.254-3.285.254-1.47 0-2.507-.082-3.155-.381-.909-.39-1.123-1.206-1.209-2.8-.044-.734 0-4.518 0-5.852v-3.14c0-.175.042-.302.303-.302.692 0 4.195.083 5.19.175 1.64.127 1.902.727 2.074 1.286.086.343.13.775.13 1.032 0 .302.042.562.26.562.175 0 .26-.127.302-.473.045-.559.045-1.42.176-2.626.13-1.248.303-2.064.303-2.28 0-.215-.087-.257-.176-.257-.172 0-.303.086-.475.343-.348.47-.995.597-1.987.648-.91.086-5.318.124-5.841.124-.217 0-.259-.175-.259-.426v-9.773c0-.26.086-.346.214-.346.086 0 4.367.045 4.932.086 2.16.13 2.549.432 2.807 1.292.13.305.261.734.303 1.375 0 .302.086.473.303.473s.303-.254.303-.641c.045-.82.086-1.508.13-2.242.087-1.073.345-1.676.345-1.933 0-.213-.086-.302-.172-.302-.175 0-.217.045-.478.127-.345.133-.823.175-1.688.216-.858.05-8.552.05-8.766.05-2.424-.044-3.589-.13-4.453-.13-.43 0-.651.086-.651.344 0 .13.262.257.561.257.345 0 .782.044 1.04.086 1.254.26 1.554.857 1.643 2.063.086 1.166.086 2.194.086 7.836v6.455h-.003zm31.106-6.452c0-5.686-.042-6.67.044-7.836.087-1.244.214-1.895 1.468-2.063.303-.045.52-.045.778-.086.345-.044.476-.13.476-.302 0-.216-.217-.301-.651-.301-1.21 0-3.72.13-3.889.13-.13 0-2.593-.13-3.936-.13-.476 0-.648.085-.648.301 0 .172.172.258.475.302.262.044.565.044.996.13.909.172 1.167.813 1.257 1.978.086 1.165.086 2.194.086 7.877v6.452c0 3.226 0 6.283-.217 7.833-.13 1.032-.262 1.895-.999 2.06-.344.086-.82.134-1.036.134-.39 0-.562.127-.562.301 0 .213.303.299.692.299 1.21 0 3.761-.13 3.892-.13.217 0 2.721.13 4.929.13.43 0 .606-.13.606-.299 0-.174-.086-.26-.475-.301-.173 0-1.082-.048-1.647-.175-1.122-.26-1.295-.734-1.467-1.978-.217-1.55-.175-4.566-.175-7.874V66.36c3.416 4 10.332 11.058 12.278 12.433 1.729 1.207 2.593 1.59 5.968 1.59h2.81c.476 0 .693-.082.693-.257 0-.212-.217-.301-.603-.34-.737-.088-.52-.047-.998-.133-1.73-.387-3.197-1.162-6.224-3.914-1.818-1.632-8.82-8.516-11.155-10.929 1.9-1.717 5.659-5.375 8.817-8.214 2.252-2.025 2.813-2.495 3.85-2.841.52-.22 1.43-.388 2.121-.432.345-.044.472-.171.472-.343 0-.171-.086-.257-.688-.257-.562 0-2.938.13-4.24.13-1.385 0-2.68-.13-2.938-.13-.348 0-.434.13-.434.257 0 .175.172.26.476.343.52.175.692.387.692.686 0 .473-.173.689-2.252 2.975-1.946 2.108-6.658 6.582-8.645 8.344v-2.023h.003zm41.007 6.582c.173 0 .262.086.345.213l3.416 8.648c.259.645 0 .86-.172.947-.175.044-.306.174-.306.305 0 .212.261.253 1.081.301 2.897.083 6.141.083 6.575.083.472 0 .647-.083.647-.299 0-.216-.217-.301-.52-.301-.303 0-.909 0-1.467-.22-.606-.212-1.86-.771-3.286-4.168-2.293-5.379-8.172-20.397-8.779-21.819-.475-1.203-.647-1.375-.864-1.375-.303 0-.43.213-.91 1.464l-8.644 22.676c-.734 1.803-1.468 3.226-3.327 3.397-.262.048-.648.048-.865.048-.344 0-.52.127-.52.301 0 .213.217.299.692.299 1.819 0 3.72-.13 4.15-.13.476 0 2.463.13 3.417.13.303 0 .65-.083.65-.299 0-.174-.13-.301-.519-.301h-.303c-.95 0-1.43-.346-1.43-1.124 0-.683.304-1.848.738-3.055l1.9-5.375c.09-.213.221-.34.438-.34h7.863v-.006zm-7.439-1.508h6.916c.176 0 .176-.13.13-.26l-3.412-9.51c-.217-.603-.262-.603-.472 0l-3.248 9.51c-.086.171 0 .26.086.26zm34.784-13.986c1.25 0 2.593.041 4.239.041 4.368.045 4.926.477 5.098 2.197.042.432.042.467.042.604 0 .34.086.514.306.514.127 0 .303-.13.303-.514 0-.346.086-3.188.086-4.391 0-.175-.086-.388-.262-.388-.127 0-.258.045-.819.172-.607.13-1.902.216-3.117.216h-14.18c-.041 0-1.253-.045-2.765-.216-.782-.086-1.602-.473-1.902-.473-.13 0-.261.171-.392.689-.258 1.159-.909 4-.864 4.254 0 .22.044.394.216.394.176 0 .259-.045.39-.35.086-.209.258-.727.65-1.33.6-.901 1.206-1.333 3.978-1.378 1.729-.04 4.017-.04 5.449-.04v15.363c0 3.226 0 6.325-.172 7.874-.173 1.46-.303 1.978-1.126 2.105-.348.048-.607.048-.948.048-.348 0-.482.168-.482.301 0 .213.176.299.651.299 1.126 0 3.675-.13 3.851-.13.175 0 2.724.13 4.928.13.434 0 .565-.13.565-.343 0-.127-.176-.254-.52-.254-.345 0-1.171-.048-1.685-.175-1.081-.26-1.17-.86-1.298-1.895-.175-1.594-.217-4.649-.217-7.96V54.394h-.003zm22.847 15.364c0 3.27-.045 5.032-.086 6.5-.09 2.663-.606 3.228-1.385 3.393a3.28 3.28 0 01-.864.134c-.214 0-.39.127-.39.301 0 .213.221.299.603.299 1.04 0 1.86-.13 2.852-.13 1.602 0 3.589.088 5.107.13 1.509 0 2.722.088 5.577.088 1.426 0 1.729-.088 1.904-.952.131-.727.472-3.439.472-3.743 0-.258 0-.645-.258-.645-.176 0-.303.172-.389.6-.348 1.594-.651 2.454-1.946 2.845-1.079.298-2.46.254-3.283.254-1.474 0-2.51-.082-3.161-.381-.906-.39-1.123-1.206-1.209-2.8-.042-.734 0-4.518 0-5.852v-3.14c0-.175.045-.302.306-.302.692 0 4.192.083 5.187.175 1.643.127 1.901.727 2.074 1.286.082.343.13.775.13 1.032 0 .302.045.562.259.562.172 0 .255-.127.303-.473.044-.559.044-1.42.172-2.626.128-1.248.303-2.064.303-2.28 0-.215-.083-.257-.175-.257-.169 0-.3.086-.469.343-.345.47-.999.597-1.991.648-.906.086-5.318.124-5.838.124-.213 0-.261-.175-.261-.426v-9.773c0-.26.086-.346.22-.346.086 0 4.364.045 4.925.086 2.166.13 2.555.432 2.814 1.292.131.305.255.734.303 1.375 0 .302.083.473.3.473.22 0 .306-.254.306-.641.045-.82.083-1.508.131-2.242.083-1.073.344-1.676.344-1.933 0-.213-.089-.302-.172-.302-.175 0-.22.045-.475.127-.348.133-.823.175-1.685.216-.864.045-8.561.045-8.778.045-2.418-.045-3.589-.13-4.454-.13-.433 0-.644.085-.644.342 0 .13.255.257.558.257.345 0 .782.045 1.04.086 1.257.26 1.557.857 1.646 2.064.086 1.165.086 2.194.086 7.836v6.46h-.009zm27.606 0c0 3.226.045 6.753-.175 8.303-.128 1.031-.39 1.504-1.123 1.635-.351.089-.654.089-.954.089-.259 0-.517.127-.517.254 0 .26.176.342.6.342 1.171 0 3.075-.13 3.767-.13.169 0 2.594.13 4.839.13.437 0 .607-.13.607-.342 0-.127-.173-.254-.562-.254-.344 0-.826-.048-1.257-.09-1.423-.174-1.556-1.034-1.684-2.06-.217-1.55-.217-4.693-.217-8.137v-.6c0-.175.045-.213.217-.213l4.453.041c.265 0 .348.086.52.26.734.905 2.463 3.23 4.154 5.293 2.245 2.883 3.54 4.82 5.359 5.595.95.384 1.904.514 3.936.514h3.021c.603 0 .778-.083.778-.299 0-.174-.127-.301-.475-.301-.127 0-1.037-.048-1.34-.09-1.209-.174-2.504-.513-4.584-2.622-2.198-2.282-4.794-5.467-7.952-9.334 3.413-2.756 4.584-5.766 4.584-8.135a6.535 6.535 0 00-2.594-5.251c-2.035-1.416-4.67-1.632-7.091-1.632-1.209 0-4.15.13-4.543.13-.083 0-2.724-.13-4.581-.13-.389 0-.52.13-.52.302 0 .171.176.257.476.257.344 0 .778.044 1.037.085 1.339.258 1.642.902 1.728 2.064.087 1.165.087 2.194.087 7.877v6.449h.006zm3.324-15.107v11.71c0 .21.045.428.217.514.565.298 2.29.556 3.85.556.9 0 1.984-.042 2.894-.642 1.295-.819 2.159-2.711 2.159-5.464 0-4.69-2.504-7.274-6.354-7.274-1.082 0-1.984.086-2.504.216a.388.388 0 00-.262.384zm29.728 15.107c0 3.226 0 6.283-.217 7.833-.128 1.032-.259 1.895-.996 2.06a5.25 5.25 0 01-1.036.134c-.393 0-.565.127-.565.301 0 .213.3.299.692.299 1.209 0 3.761-.13 3.892-.13.217 0 2.724.13 4.932.13.434 0 .603-.13.603-.299 0-.174-.083-.26-.472-.301-.176 0-1.085-.048-1.65-.175-1.119-.26-1.292-.734-1.467-1.978-.217-1.55-.176-4.566-.176-7.874v-6.452c0-5.686-.044-6.67.048-7.836.083-1.244.214-1.895 1.468-2.063.303-.045.517-.045.778-.086.345-.044.475-.13.475-.302 0-.216-.217-.301-.644-.301-1.212 0-3.723.13-3.898.13-.131 0-2.594-.13-3.93-.13-.479 0-.651.085-.651.301 0 .172.172.258.475.302.259.044.565.044.992.13.91.172 1.171.813 1.26 1.978.087 1.165.087 2.194.087 7.877v6.452zm20.821 5.248c0 3.137-.214 4.302-1.168 4.604a4.288 4.288 0 01-1.34.175c-.433 0-.603.127-.603.301 0 .257.259.299.648.299 1.86 0 3.458-.13 3.767-.13.303 0 1.86.13 4.189.13.472 0 .692-.083.692-.299 0-.174-.175-.301-.523-.301-.341 0-1.072 0-1.764-.175-1.082-.26-1.337-1.378-1.426-4.347l-.561-16.824c1.081 1.12 5.394 5.594 9.885 10.243 3.758 3.657 9.762 9.591 9.934 9.68 2.112 1.981 2.555 2.283 2.855 2.283.306 0 .389-.216.389-2.369l.09-21.6c0-2.58.303-3.009 1.295-3.225.472-.086.823-.086 1.084-.13.259-.044.383-.171.383-.343 0-.216-.124-.257-.603-.257-1.681 0-3.024.13-3.464.13-.393 0-2.201-.13-4.058-.13-.43 0-.775.041-.775.257 0 .175.086.343.517.343.303 0 .944.044 1.681.175 1.164.301 1.423 1.073 1.467 3.397l.472 17.897c-1.122-1.032-5.435-5.467-8.801-8.734-6.048-6.153-12.048-12.262-12.438-12.694-.303-.301-1.043-1.162-1.343-1.162-.35 0-.478.429-.478 1.762.038 7.144-.003.518-.003 21.044zm52.239-5.118c.176 0 .259.086.348.213l3.41 8.648c.262.645 0 .86-.172.947-.173.044-.303.174-.303.305 0 .212.255.253 1.078.301 2.896.083 6.144.083 6.574.083.476 0 .651-.083.651-.299 0-.216-.223-.301-.52-.301-.303 0-.906 0-1.47-.22-.606-.212-1.857-.771-3.286-4.168-2.29-5.379-8.173-20.397-8.779-21.819-.475-1.203-.644-1.375-.864-1.375-.303 0-.431.213-.906 1.464l-8.645 22.676c-.737 1.803-1.471 3.226-3.331 3.397-.258.048-.65.048-.864.048-.341 0-.517.127-.517.301 0 .213.214.299.692.299 1.812 0 3.714-.13 4.147-.13.479 0 2.466.13 3.417.13.306 0 .651-.083.651-.299 0-.174-.134-.301-.52-.301h-.3c-.954 0-1.429-.346-1.429-1.124 0-.683.303-1.848.737-3.055l1.898-5.375c.086-.213.213-.34.433-.34h7.87v-.006zm-7.436-1.508h6.919c.176 0 .176-.13.128-.26l-3.413-9.51c-.217-.603-.259-.603-.476 0l-3.241 9.51c-.092.171 0 .26.083.26zM99.899 96.828v4.239h-5.96v-4.24c0-.523-.427 0-.947 0-.53 0-.954-.523-.954 0v10.381c0 .524.425 0 .954 0 .523 0 .948.524.948 0v-4.245h5.959v4.245c0 .524.427 0 .95 0 .53 0 .954.524.954 0v-10.38c0-.524-.424 0-.954 0-.523 0-.95-.524-.95 0zm47.457 1.895v8.484c0 .524.428 0 .954 0s.951.524.951 0v-8.484h3.793c.526 0 0-.425 0-.946 0-.524.526-.95 0-.95h-9.382c-.53 0 0 .426 0 .95 0 .521-.53.946 0 .946h3.684zm-24.738-.158c-.951 0-1.809.38-2.428 1.006a3.48 3.48 0 00-.006 4.89 3.424 3.424 0 002.431 1.006 3.437 3.437 0 003.429-3.451c0-.956-.383-1.826-1.005-2.445a3.378 3.378 0 00-2.421-1.006zm-3.841-.39a5.43 5.43 0 00-.003 7.686 5.43 5.43 0 003.844 1.6 5.446 5.446 0 003.84-9.287 5.387 5.387 0 00-3.84-1.603c-1.5 0-2.859.616-3.841 1.603zm80.784-1.096v9.887c0 .181.054.232.143.228.029.01.067.01.105.01h9.589c.527 0 0-.426 0-.949 0-.524.527-.95 0-.95h-7.93v-8.23c0-.523-.431 0-.957 0s-.95-.52-.95.004zm-28.79 0v9.887c0 .181.051.232.147.228.028.01.063.01.108.01h9.586c.523 0 0-.426 0-.949 0-.524.523-.95 0-.95h-7.934v-2.765h4.157c.53 0 0-.426 0-.943 0-.524.53-.956 0-.956h-4.157v-1.92h7.934c.523 0 0-.426 0-.947 0-.524.523-.95 0-.95h-9.586a.562.562 0 00-.163.023h-.003l-.003.003-.01.003h-.003l-.006.007-.003.003-.007.006-.009.003-.007.013-.003.003v.003l-.006.007v.003l-.007.01-.003.006v.003a.636.636 0 00-.022.159zm5.831-55.509c-10.9 9.91-40.857 10.265-51.681.127-24.199 6.592-56.048 3.934-81.03 2.03-8.89-.68-18.058-1.512-26.974-1.512-7.975.003-11.937 7.312-13.551 14.141-.762 3.22-1.088 6.591-1.081 9.897.01 3.346.36 6.728 1.097 9.988 1.311 5.81 4.858 14.751 12.093 14.751h.029c5.972 0 11.93-.08 17.896-.178 3.078-.053 6.157-.104 9.232-.11 7.863-.013 18.738.015 26.362 2.085 2.97.81 6.351 2.16 7.117 5.468.268 1.159.207 2.381.153 3.562-.08 1.708-.118 3.21.912 4.68 1.617 2.315 5.369 3.607 7.953 4.337 6.932 1.965 15.2 2.712 22.362 3.242 14.527 1.089 29.306 1.26 43.872 1.26 14.584 0 29.389-.174 43.939-1.267 7.177-.533 15.465-1.282 22.41-3.248 2.596-.736 6.357-2.038 7.991-4.356 1.033-1.47 1.008-2.975.941-4.689-.051-1.169-.096-2.385.166-3.53.771-3.303 4.124-4.649 7.088-5.462 7.573-2.067 18.384-2.095 26.196-2.083 3.078.007 6.157.06 9.235.111 5.614.09 11.213.178 16.814.178l.055-.003c7.241 0 10.788-8.938 12.096-14.75.731-3.258 1.082-6.646 1.091-9.99.01-3.305-.319-6.67-1.078-9.896-1.614-6.83-5.576-14.135-13.554-14.135-9.047 0-18.317.816-27.342 1.492-12.466.937-26.633 2.064-40.704 2.127-14.074.06-28.04-.943-40.105-4.267zm36.663 51.15l.373.14c.271-3.182-4.581-3.773-8.907-4.303-4.903-.597-9.873-.95-14.801-1.235-13.149-.75-26.413-.981-39.582-.981-13.168 0-26.429.229-39.575.981-4.928.286-9.902.635-14.804 1.235-4.498.552-9.01 1.134-8.907 4.302l.367-.14c2.443-.94 6.096-1.38 8.696-1.698 4.88-.59 9.831-.94 14.738-1.216 13.117-.753 26.349-.981 39.485-.981 13.143 0 26.369.225 39.489.98 4.903.277 9.854.626 14.735 1.217 2.606.32 6.256.762 8.693 1.698zm-53.471-61.018c4.986 3.41 10.738 5.722 16.537 7.347 3.994-3.895 7.101-12.9 3.429-18.062a7.784 7.784 0 00-3.002-2.53c-1.307-.63-2.746-.89-4.198-.89-.829 0-1.611.19-2.357.54-.829.387-1.576.956-2.246 1.581-.823.775-1.56 1.667-2.242 2.575a45.862 45.862 0 00-2.326 3.47 353.532 353.532 0 00-3.595 5.97zm-16.799 1.909c-2.344 1.663-4.867 3.089-7.496 4.299a64.906 64.906 0 01-8.096 3.067c11.359 7.62 35.31 7.347 46.695-.143-5.42-1.693-10.741-4.02-15.385-7.306-6.052 10.21-9.606 10.366-15.718.083zm-17.765 5.572c5.851-1.623 11.676-3.947 16.697-7.395a297.534 297.534 0 00-3.64-6.052c-.734-1.187-1.496-2.355-2.332-3.47-.673-.908-1.413-1.8-2.239-2.575-.664-.625-1.413-1.19-2.246-1.58a5.473 5.473 0 00-2.357-.54c-1.449 0-2.891.26-4.202.888a7.832 7.832 0 00-3.001 2.53c-3.643 5.135-.565 14.282 3.32 18.194zm19.179-6.62c4.957 8.296 7.984 8.156 12.897-.076-2.418-1.867-4.594-4.004-6.447-6.42-1.847 2.448-4.026 4.607-6.45 6.496zm6.443-9.598c2.951-4.35 7.229-14.021 3.257-18.637-.877-1.02-2.099-1.674-3.461-1.677-1.352-.003-2.558.635-3.423 1.654-3.895 4.6.689 14.421 3.627 18.66z"/></svg>